<svg width="220" height="120" viewBox="0 0 937 120" fill="none" xmlns="http://www.w3.org/2000/svg" class="w-32 h-8 object-contain hidden dark:block" data-sentry-element="svg" data-sentry-source-file="logo.tsx"><path d="M831.558 110V112.442H834H887.739C897.392 112.442 905.648 111.211 912.427 108.657L912.434 108.654L912.441 108.652C919.165 106.071 924.426 102.486 928.034 97.7984L928.042 97.7883C931.633 93.0737 933.442 87.7165 933.442 81.796C933.442 76.3295 931.993 71.4999 929.009 67.4281C926.168 63.4308 922.434 60.3421 917.859 58.1663C916.043 57.2916 914.172 56.579 912.25 56.0279C915.584 54.6526 918.57 52.8412 921.189 50.5799C926.09 46.3512 928.541 40.8033 928.541 34.1503C928.541 25.6293 924.571 18.6717 917.026 13.3949C909.444 8.04726 898.431 5.55791 884.359 5.55791H834H831.558V8V110ZM892.999 30.8698L893.009 30.8765L893.018 30.8831C895.629 32.7014 896.788 34.9232 896.788 37.7101C896.788 40.8312 895.463 43.2593 892.498 45.1739C889.379 47.1876 885.363 48.2747 880.303 48.2747H862.973V27.8985H880.81C886.396 27.8985 890.358 28.9931 892.999 30.8698ZM897.1 86.8935L897.092 86.8988L897.084 86.9041C894.327 88.803 889.536 89.9646 882.247 89.9646H862.973V67.6716H882.922C888.96 67.6716 893.433 68.9717 896.599 71.3032L896.607 71.309L896.615 71.3147C899.767 73.5979 901.182 76.3395 901.182 79.6738C901.182 82.6212 899.931 84.976 897.1 86.8935Z" fill="white" stroke="white" stroke-width="4.88417" data-sentry-element="path" data-sentry-source-file="logo.tsx"></path><path fill-rule="evenodd" clip-rule="evenodd" d="M686 4V54.5C686 88.4655 713.534 116 747.5 116C781.466 116 809 88.4655 809 54.5V4H778V53.5C778 70.3447 764.345 84 747.5 84C730.655 84 717 70.3447 717 53.5V4H686Z" fill="white" data-sentry-element="path" data-sentry-source-file="logo.tsx"></path><path d="M254.5 4.5L208.5 114.5H238V75H254.5V114.5H260V45H276.5V114.5H283.5V68.5H299.5V114.5H332.5L286 4.5H254.5Z" fill="#02E78C" stroke="#02E78C" data-sentry-element="path" data-sentry-source-file="logo.tsx"></path><path fill-rule="evenodd" clip-rule="evenodd" d="M553 4H586V46H632L632 46.0034C646.786 46.2019 659.45 55.1926 665 67.9853V115H658H632V81C632 76.5817 628.418 73 624 73H586V115H559H553V4ZM665 53.2074V4H632V38.0028C645.158 38.1476 656.945 44.0031 665 53.2074Z" fill="white" data-sentry-element="path" data-sentry-source-file="logo.tsx"></path><path fill-rule="evenodd" clip-rule="evenodd" d="M14.3332 53C20.0607 48.6093 27.2256 46 35 46H71C89.7777 46 105 61.2223 105 80V82C105 100.778 89.7777 116 71 116H35C16.2223 116 1 100.778 1 82V80C1 79.6655 1.00483 79.3322 1.01442 79H31.9051C31.7739 79.6462 31.7051 80.3151 31.7051 81C31.7051 86.5228 36.1822 91 41.7051 91H63.3051C68.8279 91 73.3051 86.5228 73.3051 81C73.3051 75.4772 68.8279 71 63.3051 71H46.5619V53H14.3332Z" fill="#02E78C" data-sentry-element="path" data-sentry-source-file="logo.tsx"></path><path fill-rule="evenodd" clip-rule="evenodd" d="M2.98047 37.5C2.98047 18.9985 17.9789 4 36.4805 4H69.5186C88.0201 4 103.019 18.9985 103.019 37.5C103.019 38.682 102.957 39.8496 102.838 41H73.7136C74.0886 40.0736 74.2951 39.0609 74.2951 38C74.2951 33.5817 70.7133 30 66.2951 30H41.6855C37.2673 30 33.6855 33.5817 33.6855 38C33.6855 42.4183 37.2673 46 41.6856 46H64.3896V65H88.6548C83.2299 68.7821 76.6332 71 69.5186 71H36.4805C17.9789 71 2.98047 56.0015 2.98047 37.5Z" fill="#02E78C" data-sentry-element="path" data-sentry-source-file="logo.tsx"></path><path fill-rule="evenodd" clip-rule="evenodd" d="M447.333 53C453.061 48.6093 460.226 46 468 46H504C522.778 46 538 61.2223 538 80V82C538 100.778 522.778 116 504 116H468C449.222 116 434 100.778 434 82V80C434 79.6655 434.005 79.3322 434.014 79H464.905C464.774 79.6462 464.705 80.3151 464.705 81C464.705 86.5228 469.182 91 474.705 91H496.305C501.828 91 506.305 86.5228 506.305 81C506.305 75.4772 501.828 71 496.305 71H479.562V53H447.333Z" fill="#02E78C" data-sentry-element="path" data-sentry-source-file="logo.tsx"></path><path fill-rule="evenodd" clip-rule="evenodd" d="M435.98 37.5C435.98 18.9985 450.979 4 469.48 4H502.519C521.02 4 536.019 18.9985 536.019 37.5C536.019 38.682 535.957 39.8496 535.838 41H506.714C507.089 40.0736 507.295 39.0609 507.295 38C507.295 33.5817 503.713 30 499.295 30H474.686C470.267 30 466.686 33.5817 466.686 38C466.686 42.4183 470.267 46 474.686 46H497.39V65H521.655C516.23 68.7821 509.633 71 502.519 71H469.48C450.979 71 435.98 56.0015 435.98 37.5Z" fill="#02E78C" data-sentry-element="path" data-sentry-source-file="logo.tsx"></path><path d="M157 115V31H122V4H225.5V31H191V115H157Z" fill="#02E78C" data-sentry-element="path" data-sentry-source-file="logo.tsx"></path><path d="M350 115V31H315V4H418.5V31H384V115H350Z" fill="#02E78C" data-sentry-element="path" data-sentry-source-file="logo.tsx"></path></svg>